<svg xmlns="http://www.w3.org/2000/svg" viewBox="0 0 324.7 65.5"><defs><style>.cls-1{fill:#a262a8;}</style></defs><g id="Layer_2" data-name="Layer 2"><g id="Layer_1-2" data-name="Layer 1"><path class="cls-1" d="M18.7,44.8V65.2H16.2V44.8Zm5,0h2.9l6.9,16.9h.3l6.9-16.9h2.9V65.2H41.3V49.7h-.2L34.8,65.2H32.5L26.2,49.7H26V65.2H23.7ZM48.6,65.2V44.8h6.8a7.9,7.9,0,0,1,4,.9A5.4,5.4,0,0,1,61.6,48a7.3,7.3,0,0,1,.8,3.3,6.9,6.9,0,0,1-.8,3.2,5.6,5.6,0,0,1-2.2,2.4,7.5,7.5,0,0,1-3.9.8H50.6V55.6h4.8A4.8,4.8,0,0,0,58,55a3.6,3.6,0,0,0,1.5-1.5,5.4,5.4,0,0,0,.4-2.2,4.8,4.8,0,0,0-.4-2.2A2.8,2.8,0,0,0,58,47.6a4.8,4.8,0,0,0-2.6-.6H51V65.2Zm17.7,0V44.8h6.9a8.7,8.7,0,0,1,3.9.8,5.5,5.5,0,0,1,2.3,2.2,7.2,7.2,0,0,1,.7,3.3,6.8,6.8,0,0,1-.7,3.2,4.7,4.7,0,0,1-2.3,2.1,7.4,7.4,0,0,1-3.8.8H67.7V55h5.5a6.3,6.3,0,0,0,2.6-.5,2.8,2.8,0,0,0,1.5-1.3,4.6,4.6,0,0,0,.4-2.1,4.8,4.8,0,0,0-.4-2.2,2.9,2.9,0,0,0-1.5-1.4,6.8,6.8,0,0,0-2.7-.5H68.8V65.2ZM75.9,56l5,9.2H78.1l-5-9.2Zm25.5-1a14,14,0,0,1-1.1,5.6,10.2,10.2,0,0,1-3.2,3.6,9,9,0,0,1-9.3,0,10.2,10.2,0,0,1-3.2-3.6A12.5,12.5,0,0,1,83.5,55a12.2,12.2,0,0,1,1.1-5.6,10.2,10.2,0,0,1,3.2-3.6,9,9,0,0,1,9.3,0,10.2,10.2,0,0,1,3.2,3.6A13.6,13.6,0,0,1,101.4,55ZM99,55a10.1,10.1,0,0,0-.8-4.5,6.4,6.4,0,0,0-2.4-2.7,6.5,6.5,0,0,0-3.4-1,6.5,6.5,0,0,0-5.7,3.7,10,10,0,0,0-.9,4.5,10.3,10.3,0,0,0,.9,4.5,6.5,6.5,0,0,0,5.7,3.7,6.5,6.5,0,0,0,3.4-1,6.4,6.4,0,0,0,2.4-2.7A10.4,10.4,0,0,0,99,55Zm6.5-10.2,6,17.2h.2l6.1-17.2h2.6l-7.5,20.4h-2.5l-7.5-20.4Zm18,20.4V44.8h12.3V47H126v6.9h9.2v2.2H126V63h10v2.2Zm25.5,0h-2.6l7.5-20.4h2.5l7.5,20.4h-2.6L155.2,48h-.1Zm.9-8h10.5v2.2H149.9Zm33.3-12.4V65.2h-2.4l-11.1-16h-.2v16h-2.4V44.8h2.4l11.1,16h.2v-16Zm11.2,20.4h-6.2V44.8h6.5a10.1,10.1,0,0,1,5.1,1.2,7.8,7.8,0,0,1,3.2,3.5,11.5,11.5,0,0,1,1.1,5.5,11.3,11.3,0,0,1-1.1,5.4,7.7,7.7,0,0,1-3.3,3.6A10.7,10.7,0,0,1,194.4,65.2ZM190.6,63h3.7a7.7,7.7,0,0,0,4.2-1,5.5,5.5,0,0,0,2.4-2.8,9.3,9.3,0,0,0,.9-4.2,11,11,0,0,0-.8-4.3,6,6,0,0,0-2.5-2.7,6.7,6.7,0,0,0-3.9-1h-4Zm25.6,2.2V44.8h2.4V63h9.5v2.2Zm15.7,0V44.8h12.3V47h-9.8v6.9h9.2v2.2h-9.2V63h10v2.2Zm17.6,0h-2.6l7.5-20.4h2.5l7.5,20.4h-2.6L255.7,48h-.1Zm.9-8h10.5v2.2H250.4Zm17.2,8V44.8h6.8a9.5,9.5,0,0,1,4,.8,5.8,5.8,0,0,1,2.2,2.2,7.3,7.3,0,0,1,.8,3.3,6.9,6.9,0,0,1-.8,3.2,5,5,0,0,1-2.2,2.1,7.5,7.5,0,0,1-3.9.8h-5.6V55h5.5a6,6,0,0,0,2.6-.5,2.8,2.8,0,0,0,1.5-1.3,4.6,4.6,0,0,0,.4-2.1,4.8,4.8,0,0,0-.4-2.2,2.9,2.9,0,0,0-1.5-1.4,6,6,0,0,0-2.6-.5H270V65.2Zm9.6-9.2,5,9.2h-2.9L274.4,56Zm24.4-11.2V65.2h-2.4l-11.1-16h-.2v16h-2.4V44.8h2.4l11.1,16h.2v-16Z"/><path d="M1.2,47.5a1.5,1.5,0,0,1-.8-1.1A2.9,2.9,0,0,0,0,45l.8-2.7.9.6h.1l.8-.7h.5l.5-.3a50.1,50.1,0,0,0,7.7-2.7h.2l-1.4,1.3a4,4,0,0,1-1.5,1.2l-.4.7.5.2a6.2,6.2,0,0,0,2.6-1.1,37.2,37.2,0,0,0,4-2.8l4.4-3.5,3.9-3.4a30.8,30.8,0,0,0,2.5-2.4l-1.9.6-2,.4a4.4,4.4,0,0,0-.8,1,1.3,1.3,0,0,1-1.1.7,3.8,3.8,0,0,1-1.7-.4,1.4,1.4,0,0,1-.9-1.4,2.8,2.8,0,0,1,.9-1.7,2.6,2.6,0,0,1,1.7-1.1v.5h3.5l.8-.2.6.2a3.8,3.8,0,0,1,1.3-.6h1.6l3.1-3.2L35.4,20a46.1,46.1,0,0,0,3.7-4.5A11.4,11.4,0,0,0,41.2,12l.2-.2h.1a9.7,9.7,0,0,0,1.3-3.1,15.8,15.8,0,0,1,.9-3.1h0c.1-.1.1-.3.2-.5l.2-.6a3.5,3.5,0,0,0-.7-2.1c0-.3.2-.6.6-1A6.9,6.9,0,0,1,45.3.5,2.8,2.8,0,0,1,46.5,0h.4V2a10.2,10.2,0,0,1-.6,4.5c-.6,1.2-1.2,2.6-1.9,4.2v-.2a7.7,7.7,0,0,0-1,1.8c-.2.6-.5,1.2-.8,1.9a34.9,34.9,0,0,1-4.1,5.4L34,24.7h-.1a1.8,1.8,0,0,0-1.2.9,9.9,9.9,0,0,0-.9,1.4h-.3l-.5.4h0l4.7-.3,4.8-.4,1.2-1.9V24l.7-.7a32.5,32.5,0,0,1,1.1-4.2c.4-1.4,1-2.8,1.5-4.1v-.3c.1-.3.4-.9.7-1.8a14.7,14.7,0,0,1,.8-2.5c.2-.8.5-1.2.6-1.2s.2-.9.4-1.7A7.9,7.9,0,0,1,48,5.3c.3-.7.6-1,1-1l2.6,1,2.6,1,.7,1c-.2.5-.3,1-.5,1.5s-.3.9-.5,1.4l-.5-.5-.3.4a3.3,3.3,0,0,0-1.6-.7,1.3,1.3,0,0,0-.7.6,2,2,0,0,0-.4.8h2.7c0,.2-.2.4-.5.6l-.9.3-.5-.5-.6.7-.4-.2a1.1,1.1,0,0,1-.6,1.1l-.8.5-.3.8,1,.5-.2.9-.5.3h-.4a11.6,11.6,0,0,0-.9,1.9,16,16,0,0,0-1.1,2.9l-1,3a16.3,16.3,0,0,0-.4,1.8v.4h1.1a31.3,31.3,0,0,0,4.3-.4l4.4-.6h.5a2.4,2.4,0,0,1-1.8,1.4l-3.1.5a19.4,19.4,0,0,0-3.3.7,5.4,5.4,0,0,0-2.7,2.3,9.1,9.1,0,0,0-1.1,4.9V35h.1l.8-.4-.3,2.7v5.4l-.5.5H40.6l-.7-.2a1.1,1.1,0,0,0-.8,0,4.7,4.7,0,0,1-1.5-.6l-.4-1.6a1.3,1.3,0,0,0,.7-1.2l-.2-.4a32.1,32.1,0,0,1,.8-3.6l.8-3.5a3.6,3.6,0,0,0,.4-.9,2.9,2.9,0,0,0,.2-.9l.4-.6v-.5l-.2-1H37.7c0,.2-.4.4-1.1.7l-2.4.7-1.5.5-.7.5a1.1,1.1,0,0,1-.8.1h-.8l-.3-.6-.3.2H28.5l-.8.6h.1l-.7.7h-.2l-1.6,1.3h0a62.7,62.7,0,0,1-5.1,4.4A75.5,75.5,0,0,1,14,41.5a74.4,74.4,0,0,1-6.6,3.8A27.2,27.2,0,0,1,1.2,47.5Zm50.7-39V8.3h-.2v.2ZM51,14.8h-.3l.5-.7.3.7Zm-2.8.7.3-.5v-.2l-.8.5Zm-35.6,23v-.4h.2v.3h-.4Zm39.7,3.7a2.7,2.7,0,0,1-2.1-.8,3.3,3.3,0,0,1-.6-2.1,8,8,0,0,1,.3-1.6c.1-.7.3-1.6.5-2.4a18.5,18.5,0,0,1,.9-2.3c.4-.6.7-1,1-1a13.6,13.6,0,0,1,.6-2,5.2,5.2,0,0,1,1.3-1.8l.4-.2h0l.7-.8.3-.2h0a6.8,6.8,0,0,1,.2-1.4A2.5,2.5,0,0,0,57,24.2v-.5h.1l1.6-3.1h0a.5.5,0,0,1,.3-.5.4.4,0,0,0,.2-.5l1.8-2.8,2.8-3.8,2.9-3.6a13.5,13.5,0,0,1,2.3-2.4l.3-.2.5-1,1.3-.4a2.3,2.3,0,0,1,1.4-.4,4.1,4.1,0,0,1,1.6.4,5.3,5.3,0,0,1,1.7.8,1.7,1.7,0,0,1,.7,1.4v.7h-.1a5.5,5.5,0,0,1-1.7,2,18.5,18.5,0,0,1-2.4,4.6,54.7,54.7,0,0,1-4,4.6c-1.4,1.5-2.9,2.9-4.3,4.2l-3.6,3.1a8.2,8.2,0,0,0-1.5,1.6c-.3,0-.7.3-1.3.7l-1.5,1.3a2,2,0,0,0-.7,1.1l-.3.7a7.7,7.7,0,0,0-3,3.4,10.8,10.8,0,0,0-.9,4.4c0,.7.2,1.1.6,1.3a1.1,1.1,0,0,1,.5.9Zm5.9-14.9L61,25l3.9-3.6a50,50,0,0,0,3.9-4.1,25.5,25.5,0,0,0,3.1-4A6.7,6.7,0,0,0,73.1,10l-.2-.4c0-.2-.1-.3-.1-.4h-.1c-.3,0-.8.4-1.7,1.2a29.2,29.2,0,0,0-2.8,3l-3.4,4-3.3,4.1-2.4,3.6A5.5,5.5,0,0,0,58.2,27.3Zm7.3,13.1-1.2-.2-.4-.5a3.5,3.5,0,0,1-1.5-.8,2.5,2.5,0,0,1-.4-1.7c0-.3.1-.9.2-1.9s.6-1.9.9-2.7.7-1.4,1-1.4a13.6,13.6,0,0,1,.6-2A2.8,2.8,0,0,1,66,27.7h0l.7-.9h.1l.2-1.1.4-.4L62.9,27l-.4-.3a1,1,0,0,1,.6-.7l1.3-.7a2.4,2.4,0,0,1,1.1-.4,3.7,3.7,0,0,1,1.9-.7l.3-.3h.5l.8-.2.8-1a2,2,0,0,0,.3-1.1l.8-1,1-1h.2a.9.9,0,0,1,.8-.4l.3-.4V18l.3-.2.9-1.3a2.5,2.5,0,0,0,.7-1.5c0-.2-.2-.3-.5-.3l-1.1.2v-.4l3.7-3.1h0A12.4,12.4,0,0,0,79,9.9a13.3,13.3,0,0,1,1.9-1.4l1.7.6a1.7,1.7,0,0,1,1.3,1v1l-1.7,1.8-2.9,3-3.2,3.2-2.8,2.6a5.5,5.5,0,0,1-1.6,1.1l-.5.3,2.2-.3,2.2-.2a11.7,11.7,0,0,1,3,.5A3.2,3.2,0,0,1,80.9,25l.4.4v1.3a1.3,1.3,0,0,1,.1.6,1.6,1.6,0,0,1-.3,1.1l-.8.3c-.2,0-.3.2-.3.4l.5.2h0a3.6,3.6,0,0,1-1.3,2.1,23.6,23.6,0,0,1-3.2,2.8,39.1,39.1,0,0,1-4.1,3,35.4,35.4,0,0,1-3.9,2.3A6.6,6.6,0,0,1,65.5,40.4Zm7-24.9v-.2l.2-.5h.5v.5ZM66.3,39.3a5.3,5.3,0,0,0,3-1.3,21.8,21.8,0,0,0,3.2-3.5,24.1,24.1,0,0,0,2.7-4.1,7.6,7.6,0,0,0,1.1-3.2A2.3,2.3,0,0,0,74.8,25a6.5,6.5,0,0,0-2.6-.6h-.6l-.7.2V25a2.9,2.9,0,0,0-1.4.8,3,3,0,0,0-.5,1.6c-.2,0-.5.3-1,.9a3.6,3.6,0,0,1-1.5,1.1l-.3.9a1.4,1.4,0,0,1-.6,1l-.8.8a14.3,14.3,0,0,1-.8,2.2,15.5,15.5,0,0,0-.5,2.3,3.1,3.1,0,0,1,.5-1,1.9,1.9,0,0,0,.3-1l.4-.2.6-1.3v-.3l.5-.8h.2l.2-.5.4-.3h0l.5-.3.5-.4a1,1,0,0,1,.6-.9c.4-.2.6-.4.6-.8h.5l.5-.7H70l.7-.6.7-.2v.2a14.7,14.7,0,0,0-2.7,2.5,20.5,20.5,0,0,0-2.4,3.8,8.3,8.3,0,0,0-.9,3.5,7.2,7.2,0,0,0,.1,1.3C65.6,39.1,65.8,39.3,66.3,39.3Zm-3-1.5.2-.4v-.2h-.2Zm0,.7h0l.4-.4h-.4ZM96,43l-1.4-1.7c-.3-1-.5-2-.8-3a9.4,9.4,0,0,1-.5-3l.3-1.4h-.1l.6-1.6a5.5,5.5,0,0,0,.3-1.7l-.8.7-.6.9-.5.7a1.6,1.6,0,0,1-.6.8v.6a6.7,6.7,0,0,0-2.1,1l-1.9,1.5a3.6,3.6,0,0,1-2,.6H84.6a2.3,2.3,0,0,1-1.1-.5,3.2,3.2,0,0,1-1.4-.5,2,2,0,0,1-.6-1.3l.3-.9-.2-.6c.2-.8.4-1.4.5-1.7a2.4,2.4,0,0,1,.6-.9l1.4-1.1a.5.5,0,0,1,.3-.5l.7-.3v-.3l.8-.9h.2l.4-.6a2.7,2.7,0,0,1,1.1-.5l1.1-.4a1.1,1.1,0,0,1,.9-1,1.1,1.1,0,0,0,1-.8h.3l1.3-.8.4.3,1-.7h1.9a13,13,0,0,0-3.3,1.7,23.3,23.3,0,0,0-3.8,2.6A21.5,21.5,0,0,0,85.5,31a6.4,6.4,0,0,0-1.2,3.5c0,1,.5,1.4,1.5,1.4a5.6,5.6,0,0,0,2.7-.8,8.6,8.6,0,0,0,2.6-2,6.5,6.5,0,0,0,1.7-2.2l1.3-1a1.6,1.6,0,0,1,.3-.6.5.5,0,0,0,.3-.5c.4,0,.6-.3.7-.8l.6-1.8a3,3,0,0,1,.8-1.7,1.6,1.6,0,0,1,1.5-.8,3.4,3.4,0,0,1,1.8.8,1.7,1.7,0,0,1,1,1.6,5.8,5.8,0,0,1-.8,1.9l-2.1,3.5a39.1,39.1,0,0,0-2,4.1,11.9,11.9,0,0,0-.8,4,5,5,0,0,0,.3,1.6,7.5,7.5,0,0,1,.4,1.6Zm6.4,9.9a4.8,4.8,0,0,1-2.7-.9,7,7,0,0,1-2.2-2,4.3,4.3,0,0,1-.9-2.5l.3-.5A4.5,4.5,0,0,1,98,48.7a4.2,4.2,0,0,0,.9,1.6,3.2,3.2,0,0,0,2.2.7h.6l.6-.2c.5.2,1.1-.1,2-.8a17.2,17.2,0,0,0,2.7-2.7,22.1,22.1,0,0,0,2.5-3,4.8,4.8,0,0,0,1.1-2.2,26.4,26.4,0,0,0,2.3-3.5l2-3.6v-1l.6-.2V32.4l1.8-3.1v-.2l-3.8,4.6c-1.2,1.6-2.5,3.1-3.8,4.6a1.6,1.6,0,0,1-1.1.5l-1.1.2a2.2,2.2,0,0,1-1.8-.8,2.8,2.8,0,0,1-.6-1.8,8.1,8.1,0,0,1,.5-2.7,18.3,18.3,0,0,1,1.3-2.4v-.2a2.8,2.8,0,0,0,.9-1.4,6,6,0,0,1,.8-1.6c-1.3.9-2.6,2-3.9,3.1l-3.6,3.5v-.2a4.8,4.8,0,0,1,.8-1.1l2.1-2.4,2.6-2.6,2.5-2.4,1.4-1.3,2.6-.7q.3-.2,1.2.3c.6.3.9.5.9.8s-.3.7-.7,1.3l-1.1,1.2H113v.3l-1.6,1.6v.4l-.6.2-.3.4a.6.6,0,0,0,0,.6c-.6.2-.8.4-.8.7v.4c0,.1.1.2.1.4l-.7.4v.2c-.2.1-.3.4-.3.8v.7l.2.3a2.4,2.4,0,0,1-.2.8c-.1.2-.1.5-.2.8h.2c.4,0,1.1-.5,2-1.4l2.9-3.5a34.8,34.8,0,0,0,2.7-3.9,12.8,12.8,0,0,0,1.6-2.6L119,24a1.1,1.1,0,0,1,1.1-.6h.6a3.8,3.8,0,0,1,1.3.4,1.2,1.2,0,0,1,.7,1.1,6.7,6.7,0,0,1-.6,1.7q-.6,1.5-1.5,3.3c-.5,1.3-1.1,2.6-1.7,3.8s-1.2,2.4-1.7,3.3l-1,1.8a10.4,10.4,0,0,0-.3,1.2,1.3,1.3,0,0,1-.7,1.1,16,16,0,0,1-2.5,3.7L110,48.5l-1.2.6-.6.5a1,1,0,0,1-.5.6h-.3a7.3,7.3,0,0,1-2.2,1.8A4.5,4.5,0,0,1,102.4,52.9ZM136.5,43l-1.4-1.7c-.3-1-.6-2-.8-3a13.3,13.3,0,0,1-.6-3l.4-1.4H134a14.2,14.2,0,0,0,.5-1.6,3.8,3.8,0,0,0,.4-1.7l-.8.7-.6.9-.5.7a1.6,1.6,0,0,1-.6.8v.6a6.7,6.7,0,0,0-2.1,1l-1.9,1.5a3.6,3.6,0,0,1-2,.6h-1.3a2.3,2.3,0,0,1-1.1-.5,3.2,3.2,0,0,1-1.4-.5,2,2,0,0,1-.6-1.3l.3-.9-.2-.6c.2-.8.4-1.4.5-1.7a2.4,2.4,0,0,1,.6-.9l1.3-1.1a1,1,0,0,1,.4-.5l.7-.3v-.3l.8-.9h.2l.4-.6,1-.5,1.1-.4a1.3,1.3,0,0,1,1-1,1.1,1.1,0,0,0,1-.8h.3l1.2-.8.5.3,1-.7H136a15.3,15.3,0,0,0-3.4,1.7,27.8,27.8,0,0,0-3.7,2.6A21.5,21.5,0,0,0,126,31a6.4,6.4,0,0,0-1.2,3.5c0,1,.5,1.4,1.5,1.4a5.6,5.6,0,0,0,2.7-.8,10,10,0,0,0,2.6-2,6.5,6.5,0,0,0,1.7-2.2l1.2-1a1.5,1.5,0,0,1,.4-.6.5.5,0,0,0,.3-.5c.3,0,.6-.3.7-.8s.3-1.2.5-1.8a5.4,5.4,0,0,1,.8-1.7,1.9,1.9,0,0,1,1.6-.8,3.4,3.4,0,0,1,1.8.8,1.7,1.7,0,0,1,1,1.6,5.8,5.8,0,0,1-.8,1.9l-2.1,3.5a39.1,39.1,0,0,0-2,4.1,11.9,11.9,0,0,0-.8,4,5,5,0,0,0,.3,1.6,7.5,7.5,0,0,1,.4,1.6Zm6-3.9a1.2,1.2,0,0,1-1.1-.8,3.1,3.1,0,0,1-.3-1.3,10.9,10.9,0,0,1,.8-3.9l1.9-3.8a6,6,0,0,0,.9-2.7.5.5,0,0,0-.5-.4l-.7.2v-.3l1.8-2.1h0a4.6,4.6,0,0,0,.7-.7l.5-.6.7-.5a4.4,4.4,0,0,1,1.5.5,1.7,1.7,0,0,1,1.1,1.2h-.1a1.6,1.6,0,0,1-.5,1.2l-1.1,1a5.4,5.4,0,0,1-1,1.6l-.9,1.4v.8l-.3.5h-.2a10.4,10.4,0,0,0-.4,1,3.7,3.7,0,0,0-.1,1.1l.3.6.8-.7a12.7,12.7,0,0,0,1.2-1c.3-.4.5-.6.5-.7l.8-.8a6,6,0,0,1,1.6-2.3,20.6,20.6,0,0,1,2.1-2.1l.2-.5.9-.5,1-.3a2,2,0,0,1,1.1.3l1,.5v.8c0,.2.1.5.1.7a4.4,4.4,0,0,1-.7,2.2l-1.3,2.1a5.4,5.4,0,0,0-.7,2.7v1l.3,1.5q.2.6.6.6l2.3-1.2h.2a2.2,2.2,0,0,1,.5-.8,1.8,1.8,0,0,1,1-.4h0c0,.3-.2.6-.6,1.1l-1.3,1.4-1,.9-.7.2h-.7l-.2-.3a4.7,4.7,0,0,1-2.7-1.1,3.6,3.6,0,0,1-1-2.7,7.7,7.7,0,0,1,.2-1.8,25.6,25.6,0,0,1,.5-2.7,17.1,17.1,0,0,1,.5-1.8,7.4,7.4,0,0,0-1.7,1.8l-1.4,2a4.3,4.3,0,0,0-1.6,1.5c-.4.8-1,1.7-1.5,2.7a25,25,0,0,1-1.6,2.4A2.2,2.2,0,0,1,142.5,39.1Zm16.6,8.4a1.5,1.5,0,0,1-.8-1.1,2.9,2.9,0,0,0-.4-1.4l.8-2.7.9.6h.1l.8-.7h.5l.5-.3a50.1,50.1,0,0,0,7.7-2.7h.2a15.8,15.8,0,0,0-1.3,1.3,5.1,5.1,0,0,1-1.6,1.2l-.3.7.4.2a5.8,5.8,0,0,0,2.6-1.1,37.2,37.2,0,0,0,4-2.8l4.4-3.5,3.9-3.4a19.9,19.9,0,0,0,2.5-2.4l-1.9.6-2,.4-.8,1a1.3,1.3,0,0,1-1.1.7,4.1,4.1,0,0,1-1.7-.4,1.4,1.4,0,0,1-.9-1.4,2.8,2.8,0,0,1,.9-1.7c.7-.7,1.2-1.1,1.7-1.1v.5h3.5l.8-.2.6.2a3.5,3.5,0,0,1,1.4-.6h1.5l3.1-3.2,4.1-4.2a46.1,46.1,0,0,0,3.7-4.5,11.4,11.4,0,0,0,2.1-3.5l.2-.2h.1a9.7,9.7,0,0,0,1.3-3.1,15.8,15.8,0,0,1,.9-3.1h0l.3-.5a3.5,3.5,0,0,1,.1-.6,3.5,3.5,0,0,0-.7-2.1c0-.3.2-.6.6-1L203.2.5a2.8,2.8,0,0,1,1.2-.5h.4V2a10.2,10.2,0,0,1-.6,4.5l-1.9,4.2v-.2a7.7,7.7,0,0,0-1,1.8c-.2.6-.5,1.2-.8,1.9a34.9,34.9,0,0,1-4.1,5.4l-4.5,5.1h-.1a1.8,1.8,0,0,0-1.2.9l-.9,1.4h-.3l-.5.4h0l4.7-.3,4.8-.4,1.2-1.9V24l.7-.7a32.5,32.5,0,0,1,1.1-4.2l1.5-4.1v-.3c.1-.3.4-.9.7-1.8a14.7,14.7,0,0,1,.8-2.5q.4-1.2.6-1.2c.1-.3.2-.9.4-1.7a7.9,7.9,0,0,1,.6-2.2c.3-.7.6-1,1-1l2.6,1,2.6,1,.7,1a8.8,8.8,0,0,1-.5,1.5c-.2.4-.3.9-.5,1.4l-.5-.5-.3.4a3.3,3.3,0,0,0-1.6-.7,1.3,1.3,0,0,0-.7.6,2,2,0,0,0-.4.8H211c0,.2-.2.4-.5.6l-.9.3-.5-.5-.6.7-.4-.2a1.1,1.1,0,0,1-.6,1.1l-.8.5-.3.8,1,.5-.2.9-.5.3h-.4a11.6,11.6,0,0,0-.9,1.9,16,16,0,0,0-1.1,2.9c-.4,1.1-.7,2.1-1,3a16.3,16.3,0,0,0-.4,1.8v.4H204a31.3,31.3,0,0,0,4.3-.4l4.4-.6h.5a2.4,2.4,0,0,1-1.8,1.4l-3.1.5a19.4,19.4,0,0,0-3.3.7,5.4,5.4,0,0,0-2.7,2.3,9.1,9.1,0,0,0-1.1,4.9V35h.1l.8-.4a24.5,24.5,0,0,0-.2,2.7,19.3,19.3,0,0,0-.1,2.4v3l-.5.5h-2.8l-.7-.2a1.1,1.1,0,0,0-.8,0,4.7,4.7,0,0,1-1.5-.6l-.4-1.6a1.3,1.3,0,0,0,.7-1.2l-.2-.4a32.1,32.1,0,0,1,.8-3.6l.9-3.5.3-.9a2.9,2.9,0,0,0,.2-.9l.4-.6v-.5l-.2-1h-2.5c0,.2-.4.4-1.1.7l-2.4.7-1.5.5-.6.5a1.4,1.4,0,0,1-.9.1h-.8l-.2-.6-.4.2h-1.3l-.8.6h.1l-.7.7h-.2l-1.6,1.3h0a62.7,62.7,0,0,1-5.1,4.4,75.5,75.5,0,0,1-6.2,4.4c-2.2,1.4-4.4,2.7-6.5,3.8A29.7,29.7,0,0,1,159.1,47.5Zm50.7-39V8.3h-.2v.2Zm-.9,6.3h-.3l.6-.7.2.7Zm-2.8.7.3-.5v-.2l-.8.5Zm-35.6,23v-.4h.2v.3h-.4Zm42.9.2a2.6,2.6,0,0,1-1.7-.9l-1.5-1.3a4.7,4.7,0,0,0-.4-1.7,4.7,4.7,0,0,1-.4-1.7,7.4,7.4,0,0,1,1-3.1,20.5,20.5,0,0,1,2.5-3.5,21.4,21.4,0,0,1,3.3-2.9,5.3,5.3,0,0,1,2.9-1.2h0a3.5,3.5,0,0,1,2.2,1.8,4.8,4.8,0,0,1,1,2.8,2.5,2.5,0,0,1-.2.7c-.1.3-.2.4-.5.4a5.4,5.4,0,0,1-1.6-1,2.4,2.4,0,0,0-1.8-.6,4,4,0,0,0-2.3.9,12.9,12.9,0,0,0-2.1,2.4,15.9,15.9,0,0,0-1.5,2.9,6.9,6.9,0,0,0-.6,2.5.8.8,0,0,0,.1.4l.2.4a1.7,1.7,0,0,0,1.2.4h1.5V36l1.9-.4v-.5h.5v-.2h.4l.5-.3a1,1,0,0,1,.5-.4l.4.2h0l1.3-1.3h0l.3.2h0l2-1.6a4.2,4.2,0,0,0,1.6-1.9l1-.6h0a1.7,1.7,0,0,1-.3,1,2.1,2.1,0,0,1-.8.6,7.1,7.1,0,0,1-1.9,2.3l-2.2,2h-.3v.4l-2.8,2A5.9,5.9,0,0,1,213.4,38.7Zm12.5-9.6h-.5v-.5l.6-.2v.2ZM236,43l-1.4-1.7c-.3-1-.5-2-.8-3a13.4,13.4,0,0,1-.5-3l.3-1.4h-.1l.6-1.6a5.5,5.5,0,0,0,.3-1.7l-.8.7-.6.9-.5.7a1.6,1.6,0,0,1-.6.8v.6a6.7,6.7,0,0,0-2.1,1l-1.9,1.5a3.6,3.6,0,0,1-2,.6h-1.3a2.3,2.3,0,0,1-1.1-.5,3.2,3.2,0,0,1-1.4-.5c-.3-.2-.4-.7-.6-1.3l.3-.9-.2-.6c.2-.8.4-1.4.5-1.7a2.4,2.4,0,0,1,.6-.9l1.4-1.1a.5.5,0,0,1,.3-.5l.7-.3v-.3l.7-.9h.2l.4-.6a2.7,2.7,0,0,1,1.1-.5l1.1-.4a1.2,1.2,0,0,1,.9-1,1.1,1.1,0,0,0,1-.8h.3l1.3-.8.4.3,1-.7h1.9a14.9,14.9,0,0,0-3.3,1.7,28.6,28.6,0,0,0-3.8,2.6,21.5,21.5,0,0,0-2.9,3.2,6.2,6.2,0,0,0-1.1,3.5c0,1,.4,1.4,1.4,1.4a5.6,5.6,0,0,0,2.7-.8,8.6,8.6,0,0,0,2.6-2,6.5,6.5,0,0,0,1.7-2.2l1.3-1a1.6,1.6,0,0,1,.3-.6.5.5,0,0,0,.3-.5c.4,0,.6-.3.8-.8a12.1,12.1,0,0,1,.5-1.8,3.8,3.8,0,0,1,.8-1.7,1.6,1.6,0,0,1,1.5-.8,3.4,3.4,0,0,1,1.8.8,1.7,1.7,0,0,1,1,1.6,4.1,4.1,0,0,1-.8,1.9l-2.1,3.5a25.7,25.7,0,0,0-1.9,4.1,10,10,0,0,0-.9,4,5,5,0,0,0,.3,1.6,4.2,4.2,0,0,1,.4,1.6Zm19.9-1a1.9,1.9,0,0,1-1.6-1,4.1,4.1,0,0,1-.6-1.9V36.5c.1-.9.1-1.7.2-2.6h-.1a18.6,18.6,0,0,1,.9-2.4,7.7,7.7,0,0,0,.6-2.3,6,6,0,0,0-.8.8l-.6.8a4,4,0,0,0-1,1.2,4.7,4.7,0,0,1-.9,1.2,3.2,3.2,0,0,0-1.6,1.3,16.3,16.3,0,0,1-1.7,2,3.3,3.3,0,0,1-2.5.9h-1.3a2.3,2.3,0,0,1-1.1-.5,3.8,3.8,0,0,1-1.4-.5,4,4,0,0,1-.6-1.3l.3-.9-.2-.6c.2-.8.4-1.4.5-1.7l.6-.9,1.4-1.1a.9.9,0,0,1,.3-.5l.7-.3v-.3l.7-.9h.2l.5-.6a1.9,1.9,0,0,1,1-.5l1.1-.4a1.9,1.9,0,0,1,.9-1.1l1.6-1c.5-.4.8-.7.8-1h.3l1.3-.8h.3l1.1-.6h1.3l.3.2c0,.4-.3.7-.8,1.1a1.5,1.5,0,0,1-1.1.5,11.5,11.5,0,0,0-3.1,1.4,22,22,0,0,0-3.4,2.8,14,14,0,0,0-2.7,3.3,5.3,5.3,0,0,0-1.1,3.1,1.2,1.2,0,0,0,1.4,1.4,4.5,4.5,0,0,0,2.7-1.2,19.3,19.3,0,0,0,3-2.7,10.2,10.2,0,0,0,1.9-2.5l1.2-1a3.5,3.5,0,0,1,1.2-1.5,6.6,6.6,0,0,0,1.2-1.6,1.9,1.9,0,0,0,.3-.9c0-.4.3-.6.7-.7l1-1a1.1,1.1,0,0,0,.4-1.2,6.1,6.1,0,0,0,.7-1l.8-1h.2l.4-.3h.3l.2-.4V18l.3-.2v-.2c0-.1.1-.2.3-.5a3.1,3.1,0,0,1,.5-1l.3-.7c0-.5-.2-.7-.6-.7h-.5l-.4.2v-.4l3.2-3.1h0a7.3,7.3,0,0,0,1.6-1.4l1.8-1.4,1.7.6a1.9,1.9,0,0,1,1.4,1l.2,1h0a7.5,7.5,0,0,1-1,1.6l-2.6,2.9L265.3,19l-2.7,2.7c-.7.7-1,1.1-1.1,1.1l-.3,1.1-.3,1.1a1.7,1.7,0,0,0-1,.7,10.5,10.5,0,0,1-.8,1.1h.1a5.2,5.2,0,0,1-.6,1.4c-.4.8-.8,1.8-1.4,2.9s-1,2.5-1.4,3.8a14.9,14.9,0,0,0-.5,3.6,5,5,0,0,0,.2,1.7,3.6,3.6,0,0,0,.8,1.5Zm9.6-3.3a2.6,2.6,0,0,1-1.6-.9l-1.5-1.3a4.8,4.8,0,0,0-.5-1.7,4.7,4.7,0,0,1-.3-1.7,6.7,6.7,0,0,1,.9-3,20.3,20.3,0,0,1,2.6-3.6,17.1,17.1,0,0,1,3.2-2.9,5.3,5.3,0,0,1,3-1.2h0a3.1,3.1,0,0,1,1.9,1.3,3.2,3.2,0,0,1,.9,2,2.3,2.3,0,0,1-1.1,1.8,12.1,12.1,0,0,1-2.5,1.7,18.8,18.8,0,0,1-3,1.2,6.8,6.8,0,0,1-2.1.4v.2a12,12,0,0,0-1.1,2,6,6,0,0,0-.4,2.2,2.4,2.4,0,0,0,.2.8,2,2,0,0,0,1.3.4h1.4l.2-.4,1.9-.4v-.5h.4v-.2h.3l.5-.3a1,1,0,0,1,.5-.4l.5.2h0l1.3-1.3h0l.3.2h0a15.6,15.6,0,0,1,2-1.6,4.2,4.2,0,0,0,1.6-1.9l.8-.6h.2a1.8,1.8,0,0,1-.4,1,1.8,1.8,0,0,1-.9.6,6.6,6.6,0,0,1-1.7,2.3l-2.3,2h-.2v.4l-2.9,2A5.7,5.7,0,0,1,265.5,38.7Zm1.4-9.4h.1l1.8-.9,2.5-1.5c.7-.6,1.2-1,1.2-1.3h.1v-.7h-.7L270,26l-1.9,1.2H268v.5a1.6,1.6,0,0,0-.6.8A2,2,0,0,0,266.9,29.3Zm11.1-.2h-.5v-.5l.7-.2v.2Zm-2,9a1.3,1.3,0,0,1-1.3-.6,4.3,4.3,0,0,1-.4-1.4,2.9,2.9,0,0,1,.2-.9,3.7,3.7,0,0,0,.2-.9c.1.1.2.1.2,0v-1a1.5,1.5,0,0,0,.3-.7,7.8,7.8,0,0,0,.4-.7h.1l.3.2.8-1.2a1.5,1.5,0,0,0,.3-1.3l1-1.4h0a1.6,1.6,0,0,1,.3-.9l.5-.8c0-.4-.2-.6-.5-.6h-1v-.4l2.9-2.8h0a8.6,8.6,0,0,0,1.4-1.3l1.6-1.2,1.6.4a2.2,2.2,0,0,1,1.3,1v.9h0L285.3,24l-2.4,2.8-2.7,2.8-1.6,1.7-.2,1.3a1.5,1.5,0,0,0-1,.8,2.4,2.4,0,0,0-.4,1.3c-.1,0-.2.1-.2.3s-.1.3-.2.3a.9.9,0,0,1-.1.5v.8a31.7,31.7,0,0,1,2-2.9q1.5-1.8,3.3-3.6a26.9,26.9,0,0,1,3.8-3.2,6.2,6.2,0,0,1,3-1.3c.6,0,1,.4,1.2,1.1a28.6,28.6,0,0,1-.7,2.8,6.7,6.7,0,0,0-.6,2.8l.2.3,1.7-1.3.2-.2,1.1-.8a17.3,17.3,0,0,1,1.7-2.1,20.2,20.2,0,0,1,2.7-2.4,4.1,4.1,0,0,1,2.2-1.1h.2a1.9,1.9,0,0,1,1.7.6,3.7,3.7,0,0,1,.3,1.7,3.6,3.6,0,0,1-.6,2,4.1,4.1,0,0,0-.5,1.9,6.3,6.3,0,0,0,.5,2.1,1.7,1.7,0,0,0,1.6,1h.7a.8.8,0,0,1,.7-.1,6.3,6.3,0,0,1,1.2-1.1l1.5-.9.4.3a4.4,4.4,0,0,1-1.2,1.2l-2.1,1.5-2.3,1.4a3.7,3.7,0,0,1-1.5.5,2.1,2.1,0,0,1-2.2-1.3,10.7,10.7,0,0,1-.9-3,6.7,6.7,0,0,0-.7-2.7l-.3-.3-1.9,1.3a3.6,3.6,0,0,0-1.4,1.4,3.6,3.6,0,0,0-1.6,1.2c-.4.6-.7,1.3-1.1,2a14,14,0,0,1-1.3,1.8,2.7,2.7,0,0,1-1.9.8l-1-.2a1,1,0,0,1-.4-.8,5.9,5.9,0,0,1,.5-2.3l.9-2.2a4.6,4.6,0,0,0,.5-2.3l-.4-.7a4.1,4.1,0,0,0-2.2,1.1,19,19,0,0,0-2.8,2.4,33.3,33.3,0,0,0-2.5,2.8c-.7.9-1.3,1.6-1.6,2.1V38Zm28.4,14.8a4.8,4.8,0,0,1-2.7-.9,7,7,0,0,1-2.2-2,4.3,4.3,0,0,1-.9-2.5l.2-.5a6.6,6.6,0,0,1,1.2,1.7,4.2,4.2,0,0,0,.9,1.6,2.9,2.9,0,0,0,2.1.7h.7l.6-.2c.4.2,1.1-.1,2-.8a34.2,34.2,0,0,0,2.7-2.7,21,21,0,0,0,2.4-3,4.3,4.3,0,0,0,1.2-2.2c.8-1.1,1.6-2.3,2.3-3.5s1.3-2.4,1.9-3.6v-1l.7-.2V32.4l1.8-3.1v-.2l-3.8,4.6-3.9,4.6a1.4,1.4,0,0,1-1,.5l-1.2.2a2,2,0,0,1-1.7-.8,2.8,2.8,0,0,1-.6-1.8,8.1,8.1,0,0,1,.5-2.7l1.2-2.4v-.2a2.7,2.7,0,0,0,.8-1.4l.8-1.6a36.8,36.8,0,0,0-3.8,3.1l-3.7,3.5v-.2a2.7,2.7,0,0,1,.8-1.1,19.9,19.9,0,0,1,2.1-2.4l2.6-2.6,2.4-2.4,1.5-1.3,2.5-.7a1.8,1.8,0,0,1,1.3.3c.6.3.8.5.8.8a2.3,2.3,0,0,1-.7,1.3,6.9,6.9,0,0,1-1.1,1.2h-.1l.2.3-1.6,1.6v.4l-.5.2-.4.4a.6.6,0,0,0,0,.6c-.5.2-.8.4-.8.7v.4c.1.1.1.2.2.4l-.7.4v.2a.9.9,0,0,0-.4.8v.7l.2.3a2.4,2.4,0,0,1-.2.8,1.9,1.9,0,0,0-.2.8h.1c.5,0,1.2-.5,2.1-1.4l2.9-3.5,2.7-3.9a20.5,20.5,0,0,0,1.6-2.6c.2-.5.5-.9.7-1.3a1.3,1.3,0,0,1,1.1-.6h.7a2.8,2.8,0,0,1,1.2.4,1.2,1.2,0,0,1,.8,1.1,6.7,6.7,0,0,1-.6,1.7q-.6,1.5-1.5,3.3c-.5,1.3-1.1,2.6-1.7,3.8L319.2,37l-1,1.8-.3,1.2c-.2.6-.4,1-.7,1.1a20,20,0,0,1-2.5,3.7,31.8,31.8,0,0,0-2.7,3.7l-1.3.6-.5.5a.9.9,0,0,1-.6.6h-.2a7.6,7.6,0,0,1-2.3,1.8A4,4,0,0,1,304.4,52.9Z"/></g></g></svg>