<svg xmlns="http://www.w3.org/2000/svg" viewBox="0 0 318.4 266.1"><defs><style>.cls-1{opacity:0.41;}.cls-2,.cls-4{fill:#c5d9ff;}.cls-3{opacity:0.88;}.cls-4{opacity:0.31;}.cls-5,.cls-9{fill:#af9cda;}.cls-11,.cls-6{fill:#243762;}.cls-7{fill:#fff;}.cls-12,.cls-8{fill:#ecf1f7;}.cls-9{opacity:0.33;}.cls-10{fill:#f7a9b4;}.cls-11{opacity:0.29;}.cls-12{opacity:0.35;}</style></defs><g id="Layer_2" data-name="Layer 2"><g id="OBJECTS"><g class="cls-1"><path class="cls-2" d="M318.3,169.8a101.6,101.6,0,0,0-.4-15.6c-2.8-24.3-15.3-47.2-33.6-63.4-6.6-5.7-14-10.9-18.3-18.5-7.2-12.8-6.6-27.6-15.5-40.3A75.7,75.7,0,0,0,213.9,4.4c-43.7-15.1-104.8,9.5-99.3,62.2v.8A19.1,19.1,0,0,1,95.9,87.8c-40.4.9-75.1,32-82.5,71.4-4.8,25.3,3.1,53,21.6,70.9,13.8,13.4,32.4,20.8,50.9,25.8,37.2,10.1,76.4,12.2,114.7,8.4,36-3.6,73.8-14,97.1-41.6C310.1,208,317.2,189.1,318.3,169.8Z"/></g><g class="cls-3"><path class="cls-2" d="M285.1,172.3a62,62,0,0,0-.3-12.2,79.1,79.1,0,0,0-26.3-49.7c-5.1-4.5-11-8.5-14.3-14.5C238.6,85.8,239,74.3,232,64.4a59.1,59.1,0,0,0-28.6-21.7c-34.3-11.8-82.2,7.5-77.9,48.7a1.3,1.3,0,0,1,.1.6,15,15,0,0,1-14.7,16c-31.6.8-58.8,25.1-64.6,56-3.7,19.8,2.4,41.5,16.9,55.6C74,230,88.6,235.8,103.1,239.7c29.1,8,59.8,9.6,89.9,6.6,28.1-2.8,57.8-10.9,76-32.6A71,71,0,0,0,285.1,172.3Z"/></g><circle class="cls-4" cx="299.8" cy="39.3" r="9.9" transform="translate(192.4 321.9) rotate(-76.7)"/><circle class="cls-4" cx="83.2" cy="27.8" r="11.4" transform="translate(4.7 67) rotate(-45)"/><circle class="cls-4" cx="14.8" cy="247.4" r="14.8"/><circle class="cls-5" cx="131.3" cy="78.6" r="52.3"/><path class="cls-6" d="M167.6,116.3l-.4-.2a.9.9,0,0,1,0-.7A51.8,51.8,0,0,0,93.9,42.1c-.1.2-.5.2-.7,0a.5.5,0,0,1,0-.7A52.9,52.9,0,0,1,168,116.1Z"/><circle class="cls-7" cx="131.3" cy="78.6" r="39.8"/><path class="cls-6" d="M131.3,118.9a40.3,40.3,0,1,1,0-80.6.5.5,0,0,1,0,1,39.3,39.3,0,1,0,0,78.6.5.5,0,0,1,0,1Z"/><path class="cls-6" d="M141.6,86.2H130.7a4,4,0,0,1-4-4v-15a3.5,3.5,0,0,1,3.5-3.5,3.4,3.4,0,0,1,3.5,3.5v12h7.9a3.5,3.5,0,0,1,0,7Z"/><path class="cls-6" d="M50,96.8l56.4,56.4a28.2,28.2,0,0,0,39.9,0l6.8-6.8a6.6,6.6,0,0,0,0-9.2l-23-23a6.5,6.5,0,0,0-9.3,0l-11.5,11.5a2.2,2.2,0,0,1-3.2,0L78.2,97.8a2.2,2.2,0,0,1,0-3.2L89.5,83.2a6.4,6.4,0,0,0,0-9.2L65.9,50.4a6.6,6.6,0,0,0-9.1-.1l-6.4,6.2A28.3,28.3,0,0,0,50,96.8Z"/><path class="cls-8" d="M51.8,57.6,83.5,89.3l1-1.1,5-5a6.4,6.4,0,0,0,0-9.2L65.9,50.4a6.6,6.6,0,0,0-9.1-.1l-6.4,6.2Z"/><path class="cls-6" d="M83.5,90l-32-32-1.9-1.5L56.4,50a7.2,7.2,0,0,1,9.9,0L89.9,73.7a7.1,7.1,0,0,1,0,9.9ZM51.1,56.5l1,.8L83.5,88.6l5.7-5.7a6.1,6.1,0,0,0,1.7-4.3,5.9,5.9,0,0,0-1.7-4.2L65.6,50.8a6,6,0,0,0-8.5-.1Z"/><path class="cls-8" d="M116.2,121l31.7,31.7,1.1-1.1,5-5a6.6,6.6,0,0,0,0-9.2l-23.7-23.6a6.4,6.4,0,0,0-9.1-.1l-6.4,6.2Z"/><path class="cls-6" d="M147.9,153.4l-32-32-1.8-1.5,6.8-6.6a7,7,0,0,1,9.8.1L154.3,137a7.1,7.1,0,0,1,2.1,5,6.9,6.9,0,0,1-2.1,4.9Zm-32.3-33.6,1,.8L147.9,152l5.7-5.8a5.6,5.6,0,0,0,1.8-4.2,6,6,0,0,0-1.8-4.3L130,114.1a6.1,6.1,0,0,0-8.4-.1Z"/><line class="cls-8" x1="54.2" y1="53.9" x2="73.5" y2="73.2"/><path class="cls-6" d="M73.5,73.7h-.3L53.9,54.3a.6.6,0,0,1,0-.8.9.9,0,0,1,.7,0L73.9,72.8a.6.6,0,0,1,0,.8Z"/><line class="cls-8" x1="131" y1="130.7" x2="150.3" y2="150"/><path class="cls-6" d="M150.3,150.5l-.4-.2L130.6,131a.5.5,0,1,1,.7-.7l19.3,19.3a.5.5,0,0,1,0,.7Z"/><path class="cls-6" d="M235,249.1l-73.9-10.9a15.3,15.3,0,0,1-12.9-17.4L174.7,41.7a15.2,15.2,0,0,1,17.4-12.9L266,39.7a15.2,15.2,0,0,1,12.8,17.4L252.3,236.2A15.2,15.2,0,0,1,235,249.1Z"/><rect class="cls-8" x="128.3" y="90.5" width="171" height="92.75" transform="matrix(0.15, -0.99, 0.99, 0.15, 47.13, 328.38)"/><rect class="cls-5" x="219" y="12.3" width="12.8" height="92.75" transform="translate(134.4 273) rotate(-81.6)"/><path class="cls-8" d="M199.8,238h-.9a6.3,6.3,0,0,1-4-2.3,6.5,6.5,0,0,1-1.1-4.5,6,6,0,0,1,2.4-3.9,5.5,5.5,0,0,1,4.4-1.1,5.9,5.9,0,0,1,4,2.3,6.5,6.5,0,0,1,1.1,4.5A6.1,6.1,0,0,1,199.8,238Zm-.1-11a4.6,4.6,0,0,0-2.9,1,4.8,4.8,0,0,0-2,3.3,5,5,0,0,0,1,3.7,4.8,4.8,0,0,0,3.2,1.9,5,5,0,0,0,5.7-4.2,4.8,4.8,0,0,0-4.2-5.6Z"/><path class="cls-8" d="M213,43.9h-.3a2,2,0,0,1-1.2-.8,1.8,1.8,0,0,1-.4-1.4,2.2,2.2,0,0,1,.8-1.3,2.3,2.3,0,0,1,1.4-.4,2.2,2.2,0,0,1,1.3.8,1.7,1.7,0,0,1,.3,1.4h0A1.9,1.9,0,0,1,213,43.9Zm0-2.9-.5.2c-.2.2-.4.4-.4.6a.8.8,0,0,0,.2.7.9.9,0,0,0,.6.4l.7-.2a.9.9,0,0,0,.3-.6h0a.8.8,0,0,0-.1-.7l-.6-.4Z"/><path class="cls-8" d="M242.8,48.3h-.3l-23.4-3.5a1.6,1.6,0,0,1-1.2-.8,1.8,1.8,0,0,1-.4-1.4,2,2,0,0,1,.8-1.3,1.7,1.7,0,0,1,1.4-.3l23.4,3.5a1.7,1.7,0,0,1,1.3.7,1.7,1.7,0,0,1,.3,1.4,2.1,2.1,0,0,1-.7,1.3A1.9,1.9,0,0,1,242.8,48.3ZM219.4,42a.9.9,0,0,0-.9.8.7.7,0,0,0,.2.6.7.7,0,0,0,.6.4l23.4,3.5a.9.9,0,0,0,1-.8.8.8,0,0,0-.1-.7l-.6-.4L219.5,42Z"/><path class="cls-2" d="M247.6,176.5l-64-9.5a2,2,0,0,0-2.2,1.6l-2.5,16.6a1.9,1.9,0,0,0,1.6,2.2l54.8,8.1,5.6,7.8,1-6.8,2.7.4a1.9,1.9,0,0,0,2.1-1.6l2.5-16.6A2,2,0,0,0,247.6,176.5Z"/><path class="cls-6" d="M235.3,196h-.1l-54.7-8.1a2.4,2.4,0,0,1-1.6-.9,3.1,3.1,0,0,1-.5-1.8l2.5-16.6a2.4,2.4,0,0,1,2.7-2.1l14.8,2.2c.3.1.5.3.4.6s-.2.5-.5.4l-14.8-2.2a1.4,1.4,0,0,0-1.6,1.2l-2.5,16.6a2,2,0,0,0,.3,1.1,1.1,1.1,0,0,0,.9.5l54.7,8.1a.6.6,0,0,1,.5.6A.7.7,0,0,1,235.3,196Z"/><path class="cls-2" d="M257.7,107.7l-64-9.5a1.9,1.9,0,0,0-2.1,1.6l-2.5,16.6a1.9,1.9,0,0,0,1.6,2.2l54.7,8.1,5.7,7.8,1-6.8,2.6.4a2,2,0,0,0,2.2-1.6l2.4-16.6A1.9,1.9,0,0,0,257.7,107.7Z"/><path class="cls-6" d="M251.4,135.8l-6.2-8.6-54.5-8.1a2.4,2.4,0,0,1-2.1-2.7.6.6,0,0,1,.6-.5c.3.1.5.3.4.6a1.4,1.4,0,0,0,.3,1.1,1.1,1.1,0,0,0,.9.5l54.9,8.1,5.1,7,.9-6.1,3.1.5a1.7,1.7,0,0,0,1-.3,1.5,1.5,0,0,0,.6-.9l1.6-11.1a.7.7,0,0,1,.6-.4c.3.1.5.3.4.6l-1.6,11a2.6,2.6,0,0,1-2.7,2.1l-2.2-.3Z"/><path class="cls-5" d="M176.7,129.1l64,9.5a1.8,1.8,0,0,1,1.6,2.1l-2.4,16.6a1.9,1.9,0,0,1-2.2,1.6L183,150.8l-7.6,5.9,1-6.8-2.7-.4a2.1,2.1,0,0,1-1.6-2.2l2.5-16.6A1.8,1.8,0,0,1,176.7,129.1Z"/><path class="cls-6" d="M238,159.5h-.4l-34.1-5c-.3-.1-.5-.3-.4-.6s.3-.5.5-.4l34.2,5a1.2,1.2,0,0,0,1-.2,1.8,1.8,0,0,0,.6-.9l2.4-16.6a1.3,1.3,0,0,0-1.1-1.6.6.6,0,0,1-.5-.6c.1-.3.3-.5.6-.4a2.4,2.4,0,0,1,2,2.7l-2.4,16.6a2.7,2.7,0,0,1-1,1.6A2.4,2.4,0,0,1,238,159.5Z"/><rect class="cls-7" x="194.6" y="167.3" width="15.7" height="92.75" transform="matrix(0.15, -0.99, 0.99, 0.15, -38.56, 382.72)"/><path class="cls-2" d="M171.3,208.9a5.6,5.6,0,1,1-4.7-6.3A5.7,5.7,0,0,1,171.3,208.9Z"/><path class="cls-9" d="M238.9,224.1h-.7l-59.4-8.8a5.1,5.1,0,0,1-3.3-1.9,5,5,0,0,1,4.7-7.9l59.5,8.8a5,5,0,0,1,4.2,5.6A5.1,5.1,0,0,1,238.9,224.1Zm-.5-1.1a3.9,3.9,0,0,0,3.7-6.3,3.7,3.7,0,0,0-2.6-1.5l-59.4-8.8a4,4,0,0,0-3.8,6.3,3.9,3.9,0,0,0,2.6,1.5Z"/><path class="cls-7" d="M186.2,54.6h-.3a2.1,2.1,0,0,1-1.7-2.2,2.2,2.2,0,0,1,.8-1.3,1.9,1.9,0,0,1,1.5-.4,2,2,0,0,1,1.6,2.2h0A1.9,1.9,0,0,1,186.2,54.6Zm0-2.9-.6.2c-.2.1-.3.4-.4.6a.8.8,0,0,0,.2.7c.2.2.4.4.6.4a1,1,0,0,0,1.1-.8h0a.6.6,0,0,0-.2-.7.9.9,0,0,0-.6-.4Z"/><path class="cls-7" d="M191.6,55.4h-.3a2.1,2.1,0,0,1-1.7-2.2,2.1,2.1,0,0,1,2.3-1.7,2.6,2.6,0,0,1,1.3.8,1.7,1.7,0,0,1,.3,1.4,1.9,1.9,0,0,1-.7,1.3A1.9,1.9,0,0,1,191.6,55.4Zm0-2.9a1,1,0,0,0-1,.8,1.4,1.4,0,0,0,.2.7c.2.2.4.4.6.4a1.2,1.2,0,0,0,.8-.2.6.6,0,0,0,.3-.6h0a.8.8,0,0,0-.1-.7l-.7-.4Z"/><path class="cls-7" d="M196.9,56.2h-.3A1.9,1.9,0,0,1,195,54a1.9,1.9,0,0,1,2.2-1.7,2,2,0,0,1,1.6,2.2A1.9,1.9,0,0,1,196.9,56.2Zm0-2.9-.6.2c-.2.1-.3.4-.4.6a1.4,1.4,0,0,0,.2.7,1,1,0,0,0,.7.4.8.8,0,0,0,1-.8.9.9,0,0,0-.8-1.1Z"/><path class="cls-6" d="M271.6,72.4h-.1L186.6,59.9c-.3-.1-.5-.3-.4-.6s.2-.5.5-.4l85,12.5a.7.7,0,0,1,.4.6A.5.5,0,0,1,271.6,72.4Z"/><path class="cls-7" d="M236.2,180.3h-.1l-45.3-6.7a.4.4,0,0,1-.4-.6c0-.2.3-.4.5-.4l45.3,6.7a.6.6,0,0,1,.5.6A.7.7,0,0,1,236.2,180.3Z"/><path class="cls-7" d="M209.3,181.9h0L190,179c-.3,0-.5-.3-.4-.5a.5.5,0,0,1,.5-.5l19.3,2.9a.4.4,0,0,1,.4.6A.5.5,0,0,1,209.3,181.9Z"/><path class="cls-7" d="M202.8,186.1h0l-13.6-2a.7.7,0,0,1-.4-.6.5.5,0,0,1,.6-.4l13.5,2a.4.4,0,0,1,.4.6A.5.5,0,0,1,202.8,186.1Z"/><path class="cls-7" d="M235.4,185.7h-.1l-19.9-2.9a.6.6,0,0,1-.5-.6c.1-.3.3-.5.6-.4l19.9,2.9a.6.6,0,0,1,.5.6A.5.5,0,0,1,235.4,185.7Z"/><path class="cls-7" d="M230.6,142.7h0L185.3,136a.6.6,0,0,1-.5-.6.7.7,0,0,1,.6-.4l45.3,6.7c.3.1.5.3.4.6A.5.5,0,0,1,230.6,142.7Z"/><path class="cls-7" d="M203.8,144.3h-.1l-19.2-2.9a.6.6,0,0,1-.5-.6.7.7,0,0,1,.6-.4l19.3,2.9c.3,0,.4.3.4.5A.5.5,0,0,1,203.8,144.3Z"/><path class="cls-7" d="M223.9,152.4h-.1l-39.1-6.1c-.3,0-.5-.3-.4-.5a.5.5,0,0,1,.5-.5l39.1,6.1c.3.1.5.3.4.6A.4.4,0,0,1,223.9,152.4Z"/><path class="cls-7" d="M229.8,148.1h0l-20-2.9a.7.7,0,0,1-.4-.6c.1-.3.3-.5.6-.4l19.9,2.9c.3.1.5.3.4.6A.5.5,0,0,1,229.8,148.1Z"/><path class="cls-5" d="M184.9,66.7,249,76.1a2.1,2.1,0,0,1,1.6,2.2l-2.5,16.6a1.9,1.9,0,0,1-2.2,1.6l-54.7-8.1-7.6,5.8,1-6.8-2.7-.4a1.9,1.9,0,0,1-1.6-2.1l2.5-16.6A1.8,1.8,0,0,1,184.9,66.7Z"/><path class="cls-6" d="M248.1,95.4H248c-.2,0-.4-.3-.4-.6l2.5-16.6a1.9,1.9,0,0,0-.3-1,1.8,1.8,0,0,0-.9-.6l-39.8-5.8a.7.7,0,0,1-.4-.6c.1-.3.3-.5.6-.4L249,75.6a2.5,2.5,0,0,1,1.6,1,2.7,2.7,0,0,1,.5,1.8L248.6,95C248.6,95.2,248.3,95.4,248.1,95.4Z"/><path class="cls-7" d="M238.9,80.3h-.1l-45.3-6.7a.4.4,0,0,1-.4-.6.5.5,0,0,1,.5-.4l45.3,6.7a.6.6,0,0,1,.5.6A.7.7,0,0,1,238.9,80.3Z"/><path class="cls-7" d="M212,81.9h0L192.7,79a.4.4,0,0,1-.4-.6.5.5,0,0,1,.5-.4l19.3,2.9c.3,0,.5.3.4.5A.5.5,0,0,1,212,81.9Z"/><path class="cls-7" d="M232.1,90H232l-39.1-6.1a.4.4,0,0,1-.4-.6c0-.2.3-.4.5-.4L232.1,89a.6.6,0,0,1,.5.6A.7.7,0,0,1,232.1,90Z"/><path class="cls-7" d="M238.1,85.7H238l-19.9-2.9a.6.6,0,0,1-.5-.6c.1-.3.3-.5.6-.4l19.9,2.9a.6.6,0,0,1,.5.6A.7.7,0,0,1,238.1,85.7Z"/><path class="cls-7" d="M246.4,112.2h-.1L201,105.5c-.3-.1-.5-.3-.4-.6s.3-.5.5-.4l45.4,6.7c.2,0,.4.3.4.5S246.6,112.2,246.4,112.2Z"/><path class="cls-7" d="M219.6,113.7h-.1l-19.3-2.8c-.3-.1-.5-.3-.4-.6s.3-.5.5-.4l19.3,2.8a.6.6,0,0,1,.5.6A.7.7,0,0,1,219.6,113.7Z"/><path class="cls-7" d="M213.1,117.9H213l-13.5-2a.6.6,0,0,1-.5-.6.7.7,0,0,1,.6-.4l13.5,2a.6.6,0,0,1,.5.6A.7.7,0,0,1,213.1,117.9Z"/><path class="cls-7" d="M245.6,117.6h-.1l-19.9-3a.4.4,0,0,1-.4-.6c0-.2.3-.4.5-.4l20,3c.2,0,.4.3.4.5S245.8,117.6,245.6,117.6Z"/><path class="cls-10" d="M154.2,233.8,51.6,245.3a3.5,3.5,0,0,1-4-3.1l-7.4-65.8a.2.2,0,0,1,.2-.2l109.4-12.3h.2l7.4,65.8A3.7,3.7,0,0,1,154.2,233.8Z"/><path class="cls-6" d="M51.2,245.9a4.2,4.2,0,0,1-4.1-3.7l-7.4-65.7c0-.4.2-.8.6-.8l109.4-12.3c.4-.1.7.2.8.6l7.4,65.8a4.1,4.1,0,0,1-3.6,4.5L51.6,245.8ZM40.7,176.7l7.4,65.4a3,3,0,0,0,3.4,2.7l102.7-11.5v0a2.8,2.8,0,0,0,2-1.2,2.6,2.6,0,0,0,.7-2.2l-7.4-65.5Z"/><path class="cls-11" d="M149.4,233.8,56.6,245.3c-2,.3,28.8-39.2,28.6-41.1l-45-27.8a.2.2,0,0,1,.2-.2l109.4-12.3h.2l-37.4,37.1C112.8,203,151.4,233.5,149.4,233.8Z"/><path class="cls-10" d="M40.4,176.2l45.2-44.7a8.2,8.2,0,0,1,10.1-1.2l53.8,33.4c.1.1.1.2-.1.2L40.2,176.2"/><path class="cls-6" d="M40.2,176.7V176l-.2-.2h.1l45.2-44.6A8.6,8.6,0,0,1,96,129.9l53.8,33.4a.5.5,0,0,1,.2.6.5.5,0,0,1-.5.5Zm51.2-47.1a7.5,7.5,0,0,0-5.4,2.2L41.8,175.5l106.5-12L95.5,130.7A7.7,7.7,0,0,0,91.4,129.6Z"/><path class="cls-11" d="M40.4,176.2l45.2-44.7a8.2,8.2,0,0,1,10.1-1.2l53.8,33.4c.1.1.1.2-.1.2L40.2,176.2"/><path class="cls-10" d="M90.6,197.3l-34,47.3,92.8-10.5-43.6-38.5A10.2,10.2,0,0,0,90.6,197.3Z"/><path class="cls-6" d="M55.6,245.2,90.2,197l.4.3-.4-.3a10.9,10.9,0,0,1,15.9-1.8l44.5,39.3ZM99,193.5H97.9a10,10,0,0,0-6.9,4.1L57.7,244l90.6-10.3-42.9-37.8A10.2,10.2,0,0,0,99,193.5Z"/><path class="cls-7" d="M45.9,143.8l71.5-8.1c4.7-.5,8.9,2.4,9.3,6.4l4.6,40.8-19.9,18.3-26.2,3-26-16.3-4.4-39.5Z"/><path class="cls-6" d="M85,204.7,58.7,188.2l-4.4-39.5-6.8-5.6,69.8-7.9a9.9,9.9,0,0,1,6.6,1.6,7.3,7.3,0,0,1,3.3,5.3l4.6,41-20.2,18.6ZM59.7,187.6l25.6,16,25.9-2.9,19.6-18-4.6-40.5a6.5,6.5,0,0,0-2.8-4.6,9.3,9.3,0,0,0-5.9-1.4l-69.9,7.9,7.6,4Z"/><path class="cls-11" d="M90.6,193.2l-34,51.4,92.8-10.5-43.6-42.6A10.3,10.3,0,0,0,90.6,193.2Z"/><path class="cls-10" d="M90.6,197.3l-34,47.3,92.8-10.5-43.6-38.5A10.2,10.2,0,0,0,90.6,197.3Z"/><path class="cls-6" d="M55.6,245.2,90.2,197l.4.3-.4-.3a10.9,10.9,0,0,1,15.9-1.8l44.5,39.3ZM99,193.5H97.9a10,10,0,0,0-6.9,4.1L57.7,244l90.6-10.3-42.9-37.8A10.2,10.2,0,0,0,99,193.5Z"/><path class="cls-12" d="M93.9,207.7l-25,34.8,68.2-7.7L105,206.5A7.5,7.5,0,0,0,93.9,207.7Z"/><line class="cls-10" x1="40.4" y1="176.3" x2="85.2" y2="204.2"/><rect class="cls-6" x="62.3" y="163.9" width="1" height="52.71" transform="translate(-131.9 142.9) rotate(-58.1)"/><line class="cls-10" x1="150" y1="163.9" x2="112.6" y2="201.1"/><rect class="cls-6" x="104.9" y="182" width="52.7" height="1" transform="translate(-90.5 145.5) rotate(-44.8)"/><path class="cls-8" d="M56.7,166.6,44.3,168l-2.1-17.8a6,6,0,0,1,5.3-6.6h.6a6,6,0,0,1,6.6,5.3Z"/><path class="cls-6" d="M43.8,168.6l-2.1-18.3a7,7,0,0,1,1.4-4.8,6.5,6.5,0,0,1,4.4-2.4H48a6.5,6.5,0,0,1,7.2,5.8l2.1,18.3Zm5-24.6H47.6a5.7,5.7,0,0,0-3.7,2,6,6,0,0,0-1.2,4.1l2,17.3,11.5-1.3-2-17.3a5.3,5.3,0,0,0-2-3.7A5.4,5.4,0,0,0,48.8,144Z"/><path class="cls-6" d="M65.2,157.4a.5.5,0,0,1-.5-.5.5.5,0,0,1,.4-.5l51.9-5.9a.5.5,0,0,1,.5.5c0,.2-.2.5-.4.5l-51.8,5.8Z"/><path class="cls-6" d="M67.2,175a.5.5,0,0,1-.5-.5.5.5,0,0,1,.4-.5l51.8-5.9a.6.6,0,0,1,.6.5.5.5,0,0,1-.5.5L67.2,175Z"/><path class="cls-6" d="M66.2,166.1a.5.5,0,0,1-.5-.5.5.5,0,0,1,.4-.5l22.4-2.6a.6.6,0,0,1,.6.5.5.5,0,0,1-.5.5l-22.4,2.6Z"/><path class="cls-6" d="M94.4,162.9c-.2,0-.4-.2-.5-.5a.5.5,0,0,1,.5-.5l23.5-2.7a.6.6,0,0,1,.6.5.5.5,0,0,1-.5.5l-23.5,2.7Z"/><path class="cls-6" d="M68.3,185a.5.5,0,0,1-.5-.5.5.5,0,0,1,.5-.5l22.3-2.6a.6.6,0,0,1,.6.5c0,.2-.2.5-.4.5l-22.4,2.5Z"/></g></g></svg>